<svg height='300px' width='300px'  fill="#00bab6" xmlns="http://www.w3.org/2000/svg" xmlns:xlink="http://www.w3.org/1999/xlink" version="1.1" x="0px" y="0px" viewBox="0 0 100 100" style="enable-background:new 0 0 100 100;" xml:space="preserve"><g><g><path d="M86,47h-7v-7c0-1.105-0.895-2-2-2h-2c-1.105,0-2,0.895-2,2v7h-7c-1.105,0-2,0.895-2,2v2c0,1.105,0.895,2,2,2h7v7    c0,1.105,0.895,2,2,2h2c1.105,0,2-0.895,2-2v-7h7c1.105,0,2-0.895,2-2v-2C88,47.895,87.105,47,86,47z"></path><path d="M39.999,50.06c8.56,0,15.421-9.707,15.421-18.35c0-8.643-6.94-15.65-15.5-15.65c-8.56,0-15.5,7.007-15.5,15.65    C24.421,40.353,31.439,50.06,39.999,50.06z"></path><path d="M45.737,56.979H34.21c-12.266,0-22.21,9.93-22.21,22.18l0.053,2.623c0,3.422,2.778,6.197,6.206,6.197h43.536    c3.427,0,6.206-2.775,6.206-6.197l-0.053-2.623C67.947,66.909,58.004,56.979,45.737,56.979z"></path></g></g></svg>