<svg id="Layer_1" data-name="Layer 1" xmlns="http://www.w3.org/2000/svg" viewBox="0 0 799 800"><defs><style>.cls-1{fill:#fff;}.cls-2,.cls-3{fill:#04b9b5;}.cls-2{opacity:0.6;}</style></defs><title>Wayapay Brand Icons2</title><circle class="cls-1" cx="399.16" cy="399.64" r="399.64"/><path class="cls-2" d="M481.1,581a47.18,47.18,0,0,1-42.41-26.47l-107-219.2A47.16,47.16,0,0,1,416.39,294l107.05,219.2A47.19,47.19,0,0,1,481.1,581Z"/><path class="cls-2" d="M294.59,524.54a47.18,47.18,0,0,1-42.41-26.47L184.85,360.22a47.16,47.16,0,0,1,84.75-41.4l67.32,137.85a47.17,47.17,0,0,1-42.34,67.87Z"/><path class="cls-3" d="M481,581a47.17,47.17,0,0,1-42.34-67.85L562.47,259.71a47.16,47.16,0,0,1,84.75,41.38L523.44,554.54A47.17,47.17,0,0,1,481,581Z"/><path class="cls-3" d="M294.52,524.54a47.17,47.17,0,0,1-42.34-67.85L331.63,294a47.16,47.16,0,0,1,84.75,41.38L336.93,498.06A47.17,47.17,0,0,1,294.52,524.54Z"/></svg>