<svg id="Layer_1" data-name="Layer 1" xmlns="http://www.w3.org/2000/svg" viewBox="0 0 806.11 256.55"><defs><style>.cls-1{fill:#fff;}.cls-2,.cls-3{fill:#00bab6;}.cls-2{opacity:0.6;}</style></defs><title>Wayapay White</title><path class="cls-1" d="M536.38,441.68,514.28,377h19.51L546,417.32,559.55,377h13.12l13.83,40.31L598.45,377H618l-21.87,64.67H579.65l-13.48-37.83-13.36,37.83Z" transform="translate(-236.89 -272.37)"/><path class="cls-1" d="M667.59,377h17.5v64.79h-17.5v-6.62a27.14,27.14,0,0,1-20,8.28,30,30,0,0,1-22.94-9.81c-6-6.62-9-14.78-9-24.59s3.08-17.74,9.1-24.12,13.72-9.58,22.82-9.58a26.91,26.91,0,0,1,20,8.51Zm-28.73,44.57a15.79,15.79,0,0,0,11.94,5,15.48,15.48,0,0,0,11.94-5.08,17.26,17.26,0,0,0,4.85-12.18,16.77,16.77,0,0,0-4.85-12.06,16.84,16.84,0,0,0-23.88,0,17.08,17.08,0,0,0-4.61,12.06A17.66,17.66,0,0,0,638.86,421.58Z" transform="translate(-236.89 -272.37)"/><path class="cls-1" d="M739.22,377h20.1l-25.66,66.56c-6.62,17.14-15.37,25.77-29.2,25.77-5.32,0-9.7-1.18-13.12-3.43l3.43-15.37a17.52,17.52,0,0,0,8.39,2.25c5.08,0,9.34-3.31,12.53-9.93l.83-1.89-28.26-64h21.4l15.61,40.08Z" transform="translate(-236.89 -272.37)"/><path class="cls-1" d="M808.14,377h17.5v64.79h-17.5v-6.62a27.14,27.14,0,0,1-20,8.28,30,30,0,0,1-22.94-9.81c-6-6.62-9-14.78-9-24.59s3.08-17.74,9.1-24.12,13.72-9.58,22.82-9.58a26.91,26.91,0,0,1,20,8.51Zm-28.73,44.57a15.79,15.79,0,0,0,11.94,5,15.48,15.48,0,0,0,11.94-5.08,17.26,17.26,0,0,0,4.85-12.18,16.77,16.77,0,0,0-4.85-12.06,16.84,16.84,0,0,0-23.88,0,17.08,17.08,0,0,0-4.61,12.06A17.66,17.66,0,0,0,779.41,421.58Z" transform="translate(-236.89 -272.37)"/><path class="cls-1" d="M893.95,386.23a35.41,35.41,0,0,1,0,47.41c-6,6.5-13.59,9.69-22.7,9.69a26.55,26.55,0,0,1-21.75-10.4V468h-13v-90h13v9.22c5.79-7.21,13.12-10.76,21.87-10.76A29.35,29.35,0,0,1,893.95,386.23Zm-9.69,8.51a20.56,20.56,0,0,0-29.56,0,21.94,21.94,0,0,0-5.55,15.13,22.54,22.54,0,0,0,5.55,15.37c3.78,4.14,8.75,6.15,14.78,6.15s11-2,14.78-6.15a22.07,22.07,0,0,0,5.67-15.37A21.48,21.48,0,0,0,884.26,394.74Z" transform="translate(-236.89 -272.37)"/><path class="cls-1" d="M961.09,378.07h12.53v63.72H961.09V433a27.43,27.43,0,0,1-21.75,10.28c-9.1,0-16.79-3.19-22.82-9.69s-9-14.54-9-24.12,3-17.38,9-23.65,13.71-9.34,22.82-9.34c8.63,0,16,3.43,21.75,10.4Zm-5.2,47.06a22.82,22.82,0,0,0,0-30.39,20.56,20.56,0,0,0-29.55,0,23.33,23.33,0,0,0,0,30.5c3.78,4.14,8.75,6.15,14.78,6.15A19.37,19.37,0,0,0,955.89,425.13Z" transform="translate(-236.89 -272.37)"/><path class="cls-1" d="M1028.7,378.07H1043l-26.37,69.52c-5.67,15-12.89,21.28-23.76,21.28-4.49,0-8.16-.95-10.88-2.72l1.89-11.23a20.57,20.57,0,0,0,7.92,2c5.2,0,9.34-3.67,12.53-10.88l2-4.73-27.66-63.25h15l18.68,46Z" transform="translate(-236.89 -272.37)"/><circle class="cls-1" cx="128.27" cy="128.27" r="128.27"/><path class="cls-2" d="M391.46,458.86a15.14,15.14,0,0,1-13.61-8.5L343.49,380a15.14,15.14,0,0,1,27.2-13.29l34.36,70.36a15.15,15.15,0,0,1-13.59,21.78Z" transform="translate(-236.89 -272.37)"/><path class="cls-2" d="M331.6,440.73a15.14,15.14,0,0,1-13.61-8.5L296.38,388a15.14,15.14,0,0,1,27.2-13.29l21.61,44.25a15.14,15.14,0,0,1-13.59,21.78Z" transform="translate(-236.89 -272.37)"/><path class="cls-3" d="M391.44,458.86a15.14,15.14,0,0,1-13.59-21.78l39.73-81.35A15.14,15.14,0,0,1,444.79,369l-39.73,81.35A15.14,15.14,0,0,1,391.44,458.86Z" transform="translate(-236.89 -272.37)"/><path class="cls-3" d="M331.58,440.73A15.14,15.14,0,0,1,318,418.95l25.5-52.23A15.14,15.14,0,0,1,370.69,380l-25.5,52.23A15.14,15.14,0,0,1,331.58,440.73Z" transform="translate(-236.89 -272.37)"/></svg>