<svg id="Layer_1" data-name="Layer 1" xmlns="http://www.w3.org/2000/svg" xmlns:xlink="http://www.w3.org/1999/xlink" viewBox="0 0 668.11 212.63"><defs><style>.cls-1{fill:#35495e;}.cls-2{fill:url(#linear-gradient);}.cls-3,.cls-4{fill:#fff;}.cls-3{opacity:0.6;}</style><linearGradient id="linear-gradient" x1="163.34" y1="199.85" x2="47.3" y2="9.5" gradientUnits="userSpaceOnUse"><stop offset="0" stop-color="#00b9b5"/><stop offset="1" stop-color="#05bae3"/></linearGradient></defs><title>Wayapay Logo F</title><path class="cls-1" d="M555.11,434.65l-18.32-53.6H553L563,414.47l11.27-33.41h10.88l11.46,33.41,9.9-33.41h16.17l-18.13,53.6H591L579.8,403.3l-11.07,31.36Z" transform="translate(-306.89 -294.32)"/><path class="cls-1" d="M663.86,381.05h14.5v53.7h-14.5v-5.49a22.49,22.49,0,0,1-16.56,6.86,24.9,24.9,0,0,1-19-8.13c-5-5.49-7.45-12.25-7.45-20.38s2.55-14.7,7.54-20a25,25,0,0,1,18.91-7.94,22.31,22.31,0,0,1,16.56,7.05ZM640,418a13.09,13.09,0,0,0,9.9,4.12,12.83,12.83,0,0,0,9.9-4.21,14.3,14.3,0,0,0,4-10.09,13.9,13.9,0,0,0-4-10,14,14,0,0,0-19.79,0,14.16,14.16,0,0,0-3.82,10A14.63,14.63,0,0,0,640,418Z" transform="translate(-306.89 -294.32)"/><path class="cls-1" d="M723.22,381.05h16.66l-21.27,55.17c-5.49,14.21-12.74,21.36-24.2,21.36a19.49,19.49,0,0,1-10.88-2.84L686.38,442a14.52,14.52,0,0,0,7,1.86c4.21,0,7.74-2.74,10.39-8.23l.69-1.57-23.42-53h17.74l12.93,33.22Z" transform="translate(-306.89 -294.32)"/><path class="cls-1" d="M780.34,381.05h14.5v53.7h-14.5v-5.49a22.49,22.49,0,0,1-16.56,6.86,24.9,24.9,0,0,1-19-8.13c-5-5.49-7.45-12.25-7.45-20.38s2.55-14.7,7.54-20a25,25,0,0,1,18.91-7.94,22.31,22.31,0,0,1,16.56,7.05ZM756.53,418a13.09,13.09,0,0,0,9.9,4.12,12.83,12.83,0,0,0,9.9-4.21,14.3,14.3,0,0,0,4-10.09,13.9,13.9,0,0,0-4-10,14,14,0,0,0-19.79,0,14.16,14.16,0,0,0-3.82,10A14.63,14.63,0,0,0,756.53,418Z" transform="translate(-306.89 -294.32)"/><path class="cls-1" d="M851.47,388.69a29.35,29.35,0,0,1,0,39.29,24.53,24.53,0,0,1-18.81,8,22,22,0,0,1-18-8.62v29.1H803.85V381.93h10.78v7.64c4.8-6,10.88-8.92,18.13-8.92A24.33,24.33,0,0,1,851.47,388.69Zm-8,7.05a17,17,0,0,0-24.5,0,18.18,18.18,0,0,0-4.6,12.54,18.68,18.68,0,0,0,4.6,12.74,17.27,17.27,0,0,0,24.5,0,18.29,18.29,0,0,0,4.7-12.74A17.81,17.81,0,0,0,843.43,395.75Z" transform="translate(-306.89 -294.32)"/><path class="cls-1" d="M907.11,381.93H917.5v52.82H907.11V427.5a22.73,22.73,0,0,1-18,8.52,24.75,24.75,0,0,1-18.91-8c-5-5.39-7.45-12.05-7.45-20s2.45-14.4,7.45-19.6,11.37-7.74,18.91-7.74a22.53,22.53,0,0,1,18,8.62Zm-4.31,39a18.92,18.92,0,0,0,0-25.18,17,17,0,0,0-24.5,0,19.34,19.34,0,0,0,0,25.28,15.83,15.83,0,0,0,12.25,5.1A16.05,16.05,0,0,0,902.8,420.93Z" transform="translate(-306.89 -294.32)"/><path class="cls-1" d="M963.14,381.93H975l-21.85,57.62c-4.7,12.44-10.68,17.64-19.69,17.64a16.38,16.38,0,0,1-9-2.25l1.57-9.31a17,17,0,0,0,6.57,1.67c4.31,0,7.74-3,10.39-9l1.67-3.92L921.7,381.93h12.44L949.62,420Z" transform="translate(-306.89 -294.32)"/><circle class="cls-2" cx="106.31" cy="106.31" r="106.31"/><path class="cls-3" d="M435,448.89a12.55,12.55,0,0,1-11.28-7l-28.48-58.31a12.54,12.54,0,0,1,22.54-11l28.48,58.31A12.55,12.55,0,0,1,435,448.89Z" transform="translate(-306.89 -294.32)"/><path class="cls-3" d="M385.39,433.86a12.55,12.55,0,0,1-11.28-7l-17.91-36.67a12.55,12.55,0,0,1,22.55-11l17.91,36.67a12.55,12.55,0,0,1-11.26,18.05Z" transform="translate(-306.89 -294.32)"/><path class="cls-4" d="M435,448.89a12.55,12.55,0,0,1-11.26-18.05l32.93-67.43a12.55,12.55,0,0,1,22.55,11l-32.93,67.43A12.55,12.55,0,0,1,435,448.89Z" transform="translate(-306.89 -294.32)"/><path class="cls-4" d="M385.37,433.86a12.55,12.55,0,0,1-11.26-18.05l21.14-43.29a12.55,12.55,0,0,1,22.55,11l-21.14,43.29A12.55,12.55,0,0,1,385.37,433.86Z" transform="translate(-306.89 -294.32)"/></svg>