<svg width="300" height="135" viewBox="0 0 300 135" fill="none" xmlns="http://www.w3.org/2000/svg">
<g clip-path="url(#clip0)">
<rect width="300" height="134.991" fill="white"/>
<rect width="300" height="135" fill="#00BAB6"/>
<path opacity="0.6" d="M268.653 90.4575C267.504 90.4582 266.378 90.1446 265.403 89.5524C264.428 88.9602 263.643 88.1132 263.139 87.108L249.223 59.3646C248.51 57.9416 248.406 56.3008 248.935 54.8032C249.464 53.3057 250.582 52.0741 252.044 51.3793C253.506 50.6845 255.191 50.5835 256.729 51.0984C258.267 51.6134 259.532 52.7022 260.246 54.1252L274.158 81.8674C274.612 82.7771 274.822 83.7842 274.767 84.7943C274.712 85.8044 274.395 86.7844 273.845 87.6425C273.294 88.5005 272.529 89.2085 271.621 89.7C270.713 90.1915 269.692 90.4504 268.653 90.4524V90.4575Z" fill="white"/>
<path opacity="0.6" d="M244.406 83.308C243.257 83.3087 242.131 82.9951 241.156 82.4029C240.181 81.8107 239.397 80.9637 238.892 79.9585L230.14 62.5121C229.787 61.8074 229.58 61.042 229.53 60.2593C229.481 59.4767 229.59 58.6922 229.852 57.9507C230.381 56.4532 231.499 55.2215 232.961 54.5268C234.423 53.832 236.108 53.7309 237.646 54.2459C239.184 54.7609 240.449 55.8496 241.163 57.2727L249.915 74.7192C250.37 75.6288 250.58 76.636 250.526 77.6464C250.471 78.6568 250.154 79.6371 249.604 80.4954C249.053 81.3537 248.288 82.0617 247.38 82.553C246.471 83.0443 245.449 83.3028 244.41 83.3042L244.406 83.308Z" fill="white"/>
<path d="M268.644 90.4572C267.604 90.4558 266.583 90.1973 265.674 89.706C264.766 89.2147 264 88.5067 263.45 87.6484C262.9 86.7901 262.582 85.8098 262.528 84.7994C262.474 83.789 262.684 82.7817 263.139 81.8722L279.23 49.7895C279.584 49.0849 280.076 48.4549 280.679 47.9355C281.282 47.4161 281.985 47.0175 282.746 46.7624C283.508 46.5073 284.314 46.4007 285.117 46.4487C285.921 46.4967 286.707 46.6985 287.431 47.0423C288.155 47.3862 288.802 47.8654 289.335 48.4528C289.869 49.0401 290.278 49.724 290.54 50.4654C290.802 51.2068 290.912 51.9911 290.863 52.7737C290.813 53.5563 290.606 54.3217 290.253 55.0264L274.158 87.1052C273.654 88.1109 272.869 88.9585 271.894 89.5512C270.92 90.1439 269.793 90.4578 268.644 90.4572Z" fill="white"/>
<path d="M244.397 83.3078C243.358 83.3064 242.336 83.0479 241.427 82.5566C240.519 82.0653 239.754 81.3573 239.203 80.499C238.653 79.6408 238.336 78.6604 238.281 77.65C238.227 76.6396 238.437 75.6324 238.892 74.7228L249.222 54.1289C249.575 53.4242 250.068 52.7942 250.671 52.2748C251.274 51.7554 251.977 51.3568 252.738 51.1017C253.5 50.8466 254.305 50.74 255.109 50.7881C255.913 50.8361 256.699 51.0378 257.423 51.3817C258.147 51.7255 258.794 52.2048 259.327 52.7921C259.861 53.3795 260.27 54.0633 260.532 54.8047C260.794 55.5461 260.904 56.3305 260.854 57.1131C260.805 57.8956 260.598 58.6611 260.245 59.3657L249.911 79.9571C249.407 80.9625 248.622 81.8097 247.647 82.4021C246.673 82.9946 245.546 83.3084 244.397 83.3078V83.3078Z" fill="white"/>
<rect y="3" width="300" height="135" fill="#00BAB6" fill-opacity="0.46"/>
</g>
<defs>
<clipPath id="clip0">
<rect width="300" height="134.991" fill="white"/>
</clipPath>
</defs>
</svg>
