<svg height='300px' width='300px'  fill="#00bab6" xmlns="http://www.w3.org/2000/svg" xmlns:xlink="http://www.w3.org/1999/xlink" viewBox="0 0 24 24" version="1.1" x="0px" y="0px"><title>icon/more-vertical-solid</title><desc>Created with Sketch.</desc><g stroke="none" stroke-width="1" fill="none" fill-rule="evenodd"><path d="M12,7.0049 C10.897,7.0049 10,6.1089 10,5.0049 C10,3.9009 10.897,3.0049 12,3.0049 C13.103,3.0049 14,3.9009 14,5.0049 C14,6.1089 13.103,7.0049 12,7.0049 Z M12,14.0049 C10.897,14.0049 10,13.1089 10,12.0049 C10,10.9009 10.897,10.0049 12,10.0049 C13.103,10.0049 14,10.9009 14,12.0049 C14,13.1089 13.103,14.0049 12,14.0049 Z M12,21.0049 C10.897,21.0049 10,20.1089 10,19.0049 C10,17.9009 10.897,17.0049 12,17.0049 C13.103,17.0049 14,17.9009 14,19.0049 C14,20.1089 13.103,21.0049 12,21.0049 Z" fill="#00bab6"></path></g></svg>