<svg id="Layer_1" data-name="Layer 1" xmlns="http://www.w3.org/2000/svg" viewBox="0 0 802 800"><defs><style>.cls-1{fill:#04b9b5;}.cls-2,.cls-3{fill:#fff;}.cls-2{opacity:0.6;}</style></defs><title>Wayapay Brand Icons2</title><circle class="cls-1" cx="401" cy="400" r="400.64"/><path class="cls-2" d="M483.15,581.84a47.29,47.29,0,0,1-42.52-26.53L333.32,335.56a47.28,47.28,0,0,1,85-41.5L525.6,513.8a47.31,47.31,0,0,1-42.45,68Z"/><path class="cls-2" d="M296.17,525.21a47.29,47.29,0,0,1-42.52-26.53L186.16,360.49a47.28,47.28,0,0,1,85-41.5l67.49,138.19a47.29,47.29,0,0,1-42.45,68Z"/><path class="cls-3" d="M483.08,581.84a47.29,47.29,0,0,1-42.45-68L564.72,259.72a47.28,47.28,0,1,1,85,41.48L525.6,555.29A47.28,47.28,0,0,1,483.08,581.84Z"/><path class="cls-3" d="M296.1,525.21a47.29,47.29,0,0,1-42.45-68l79.66-163.12a47.28,47.28,0,1,1,85,41.48L338.62,498.67A47.29,47.29,0,0,1,296.1,525.21Z"/></svg>