<svg width="100" height="100" viewBox="0 0 100 100" fill="none" xmlns="http://www.w3.org/2000/svg">
<path d="M64.1963 87.5499C62.3954 87.5511 60.6303 87.0449 59.1024 86.0892C57.5744 85.1335 56.3451 83.7666 55.5545 82.1444L33.7446 37.3703C32.6261 35.0737 32.4635 32.4258 33.2925 30.0089C34.1215 27.5921 35.8742 25.6044 38.1651 24.4832C40.456 23.3619 43.0973 23.1988 45.5081 24.0299C47.9189 24.861 49.9017 26.6181 51.0201 28.9147L72.8239 73.6867C73.5361 75.1548 73.8646 76.7801 73.7788 78.4103C73.693 80.0405 73.1957 81.6221 72.3333 83.0069C71.471 84.3917 70.272 85.5342 68.8488 86.3274C67.4256 87.1206 65.8247 87.5384 64.1963 87.5417V87.5499Z" fill="white"/>
<path d="M26.1941 76.0116C24.3932 76.0127 22.6281 75.5066 21.1002 74.5508C19.5723 73.5951 18.3429 72.2283 17.5523 70.6061L3.8355 42.4498C3.28168 41.3127 2.9567 40.0773 2.87913 38.8142C2.80156 37.5511 2.9729 36.2851 3.38339 35.0884C4.21239 32.6716 5.96513 30.6839 8.25601 29.5626C10.5469 28.4414 13.1883 28.2783 15.5991 29.1094C18.0098 29.9405 19.9926 31.6976 21.1111 33.9942L34.8279 62.1504C35.5412 63.6184 35.8706 65.244 35.7854 66.8746C35.7001 68.5052 35.2028 70.0874 34.3403 71.4725C33.4778 72.8576 32.2783 74.0003 30.8544 74.7932C29.4305 75.5861 27.829 76.0032 26.2002 76.0054L26.1941 76.0116Z" fill="white"/>
<path d="M64.182 87.5499C62.5533 87.5477 60.9517 87.1305 59.5279 86.3376C58.104 85.5447 56.9045 84.4021 56.042 83.017C55.1795 81.6318 54.6822 80.0497 54.5969 78.4191C54.5116 76.7884 54.8411 75.1628 55.5544 73.6949L80.7747 21.9179C81.3283 20.7808 82.0998 19.7641 83.0453 18.9258C83.9908 18.0876 85.0918 17.4442 86.2853 17.0325C87.4788 16.6208 88.7415 16.4488 90.0013 16.5264C91.2612 16.6039 92.4934 16.9294 93.6277 17.4843C94.7621 18.0393 95.7763 18.8128 96.6124 19.7606C97.4486 20.7085 98.0903 21.8122 98.501 23.0087C98.9116 24.2052 99.0832 25.4711 99.0059 26.734C98.9286 27.997 98.6038 29.2323 98.0503 30.3695L72.8239 82.1403C72.034 83.7634 70.805 85.1313 69.277 86.0878C67.7489 87.0443 65.9835 87.5509 64.182 87.5499Z" fill="white"/>
<path d="M26.1799 76.0116C24.5511 76.0093 22.9496 75.5922 21.5257 74.7993C20.1019 74.0064 18.9024 72.8637 18.0398 71.4786C17.1773 70.0935 16.6801 68.5113 16.5948 66.8807C16.5095 65.2501 16.839 63.6245 17.5523 62.1565L33.7425 28.9208C34.2961 27.7837 35.0676 26.7669 36.0131 25.9287C36.9587 25.0905 38.0596 24.4471 39.2531 24.0354C40.4466 23.6237 41.7093 23.4517 42.9692 23.5293C44.229 23.6068 45.4612 23.9323 46.5956 24.4872C47.7299 25.0422 48.7441 25.8157 49.5802 26.7635C50.4164 27.7114 51.0581 28.8151 51.4688 30.0116C51.8794 31.2081 52.051 32.4739 51.9737 33.7369C51.8964 34.9999 51.5716 36.2352 51.0181 37.3724L34.8218 70.604C34.0314 72.2266 32.8022 73.5939 31.2742 74.55C29.7463 75.5061 27.9811 76.0125 26.1799 76.0116Z" fill="white"/>
</svg>
